<svg id="SvgjsSvg1190" width="379.7250061035156" height="511.50003814697266" xmlns="http://www.w3.org/2000/svg" version="1.1" xmlns:xlink="http://www.w3.org/1999/xlink" xmlns:svgjs="http://svgjs.com/svgjs"><defs id="SvgjsDefs1191"><marker id="SvgjsMarker1232" markerWidth="14" markerHeight="10" refX="10" refY="5" viewBox="0 0 14 10" orient="auto" markerUnits="userSpaceOnUse" stroke-dasharray="0,0"><path id="SvgjsPath1233" d="M0,0 L14,5 L0,10 L0,0" fill="#323232" stroke="#323232" stroke-width="1"></path></marker><marker id="SvgjsMarker1236" markerWidth="14" markerHeight="10" refX="10" refY="5" viewBox="0 0 14 10" orient="auto" markerUnits="userSpaceOnUse" stroke-dasharray="0,0"><path id="SvgjsPath1237" d="M0,0 L14,5 L0,10 L0,0" fill="#323232" stroke="#323232" stroke-width="1"></path></marker><marker id="SvgjsMarker1240" markerWidth="14" markerHeight="10" refX="10" refY="5" viewBox="0 0 14 10" orient="auto" markerUnits="userSpaceOnUse" stroke-dasharray="0,0"><path id="SvgjsPath1241" d="M0,0 L14,5 L0,10 L0,0" fill="#323232" stroke="#323232" stroke-width="1"></path></marker><marker id="SvgjsMarker1244" markerWidth="14" markerHeight="10" refX="10" refY="5" viewBox="0 0 14 10" orient="auto" markerUnits="userSpaceOnUse" stroke-dasharray="0,0"><path id="SvgjsPath1245" d="M0,0 L14,5 L0,10 L0,0" fill="#323232" stroke="#323232" stroke-width="1"></path></marker><marker id="SvgjsMarker1248" markerWidth="14" markerHeight="10" refX="10" refY="5" viewBox="0 0 14 10" orient="auto" markerUnits="userSpaceOnUse" stroke-dasharray="0,0"><path id="SvgjsPath1249" d="M0,0 L14,5 L0,10 L0,0" fill="#323232" stroke="#323232" stroke-width="1"></path></marker><marker id="SvgjsMarker1252" markerWidth="14" markerHeight="10" refX="10" refY="5" viewBox="0 0 14 10" orient="auto" markerUnits="userSpaceOnUse" stroke-dasharray="0,0"><path id="SvgjsPath1253" d="M0,0 L14,5 L0,10 L0,0" fill="#323232" stroke="#323232" stroke-width="1"></path></marker><marker id="SvgjsMarker1268" markerWidth="14" markerHeight="10" refX="10" refY="5" viewBox="0 0 14 10" orient="auto" markerUnits="userSpaceOnUse" stroke-dasharray="0,0"><path id="SvgjsPath1269" d="M0,0 L14,5 L0,10 L0,0" fill="#323232" stroke="#323232" stroke-width="1"></path></marker><marker id="SvgjsMarker1290" markerWidth="14" markerHeight="10" refX="10" refY="5" viewBox="0 0 14 10" orient="auto" markerUnits="userSpaceOnUse" stroke-dasharray="0,0"><path id="SvgjsPath1291" d="M0,0 L14,5 L0,10 L0,0" fill="#323232" stroke="#323232" stroke-width="1"></path></marker></defs><g id="SvgjsG1192" transform="translate(108.72499084472656,25.00000000000005)"><path id="SvgjsPath1193" d="M 11 0L 59 0C 73.66666666666667 0 73.66666666666667 33 59 33L 11 33C -3.6666666666666665 33 -3.6666666666666665 0 11 0Z" stroke="rgba(50,50,50,1)" stroke-width="2" fill-opacity="1" fill="#ffffff"></path><g id="SvgjsG1194"><text id="SvgjsText1195" font-family="微软雅黑" text-anchor="middle" font-size="13px" width="50px" fill="#323232" font-weight="400" align="middle" lineHeight="125%" anchor="middle" family="微软雅黑" size="13px" weight="400" font-style="" opacity="1" y="6.875" transform="rotate(0)"><tspan id="SvgjsTspan1196" dy="16" x="35"><tspan id="SvgjsTspan1197" style="text-decoration:;">开始</tspan></tspan></text></g></g><g id="SvgjsG1198" transform="translate(60.63213203066866,91.20238095238095)"><path id="SvgjsPath1199" d="M 0 32.890476953415636L 83.09285881405785 0L 166.1857176281157 32.890476953415636L 83.09285881405785 65.78095390683127L 0 32.890476953415636Z" stroke="rgba(50,50,50,1)" stroke-width="2" fill-opacity="1" fill="#ffffff"></path><g id="SvgjsG1200"><text id="SvgjsText1201" font-family="微软雅黑" text-anchor="middle" font-size="13px" width="147px" fill="#323232" font-weight="400" align="middle" lineHeight="125%" anchor="middle" family="微软雅黑" size="13px" weight="400" font-style="" opacity="1" y="23.265476953415636" transform="rotate(0)"><tspan id="SvgjsTspan1202" dy="16" x="83.5"><tspan id="SvgjsTspan1203" style="text-decoration:;">在序列中是否还有元素</tspan></tspan></text></g></g><g id="SvgjsG1204" transform="translate(80.59999084472656,254.25)"><path id="SvgjsPath1205" d="M 0 0L 126.25 0L 126.25 38L 0 38Z" stroke="rgba(50,50,50,1)" stroke-width="2" fill-opacity="1" fill="#ffffff"></path><g id="SvgjsG1206"><text id="SvgjsText1207" font-family="微软雅黑" text-anchor="middle" font-size="13px" width="107px" fill="#323232" font-weight="400" align="middle" lineHeight="125%" anchor="middle" family="微软雅黑" size="13px" weight="400" font-style="" opacity="1" y="9.375" transform="rotate(0)"><tspan id="SvgjsTspan1208" dy="16" x="63.5"><tspan id="SvgjsTspan1209" style="text-decoration:;">执行循环体语句组</tspan></tspan></text></g></g><g id="SvgjsG1210" transform="translate(65.44374084472656,319.25)"><path id="SvgjsPath1211" d="M 0 52.5L 78.28125 0L 156.5625 52.5L 78.28125 105L 0 52.5Z" stroke="rgba(50,50,50,1)" stroke-width="2" fill-opacity="1" fill="#ffffff"></path><g id="SvgjsG1212"><text id="SvgjsText1213" font-family="微软雅黑" text-anchor="middle" font-size="13px" width="137px" fill="#323232" font-weight="400" align="middle" lineHeight="125%" anchor="middle" family="微软雅黑" size="13px" weight="400" font-style="" opacity="1" y="34.375" transform="rotate(0)"><tspan id="SvgjsTspan1214" dy="16" x="78.5"><tspan id="SvgjsTspan1215" style="text-decoration:;">是否遇到break、</tspan></tspan><tspan id="SvgjsTspan1216" dy="16" x="78.5"><tspan id="SvgjsTspan1217" style="text-decoration:;">return和有异常发生</tspan></tspan></text></g></g><g id="SvgjsG1218" transform="translate(108.72499084472656,451.25)"><path id="SvgjsPath1219" d="M 11 0L 59 0C 73.66666666666667 0 73.66666666666667 33 59 33L 11 33C -3.6666666666666665 33 -3.6666666666666665 0 11 0Z" stroke="rgba(50,50,50,1)" stroke-width="2" fill-opacity="1" fill="#ffffff"></path><g id="SvgjsG1220"><text id="SvgjsText1221" font-family="微软雅黑" text-anchor="middle" font-size="13px" width="50px" fill="#323232" font-weight="400" align="middle" lineHeight="125%" anchor="middle" family="微软雅黑" size="13px" weight="400" font-style="" opacity="1" y="6.875" transform="rotate(0)"><tspan id="SvgjsTspan1222" dy="16" x="35"><tspan id="SvgjsTspan1223" style="text-decoration:;">结束</tspan></tspan></text></g></g><g id="SvgjsG1224" transform="translate(256.7249984741211,448.5)"><path id="SvgjsPath1225" d="M 0 0L 99 0L 99 38.5L 0 38.5Z" stroke="rgba(50,50,50,1)" stroke-width="2" fill-opacity="1" fill="#ffffff"></path><g id="SvgjsG1226"><text id="SvgjsText1227" font-family="微软雅黑" text-anchor="middle" font-size="13px" width="79px" fill="#323232" font-weight="400" align="middle" lineHeight="125%" anchor="middle" family="微软雅黑" size="13px" weight="400" font-style="" opacity="1" y="9.625" transform="rotate(0)"><tspan id="SvgjsTspan1228" dy="16" x="49.5"><tspan id="SvgjsTspan1229" style="text-decoration:;">执行else语句</tspan></tspan></text></g></g><g id="SvgjsG1230"><path id="SvgjsPath1231" d="M143.72499084472656 59.000000000000114L143.72499084472656 74.60119047619052L143.7249908447265 74.60119047619052L143.7249908447265 87.60238095238094" stroke="#323232" stroke-width="2" fill="none" marker-end="url(#SvgjsMarker1232)"></path></g><g id="SvgjsG1234"><path id="SvgjsPath1235" d="M143.7249908447265 157.98333485921202L143.7249908447265 169.60476266770124L143.72499084472656 169.60476266770124L143.72499084472656 178.62619047619046" stroke="#323232" stroke-width="2" fill="none" marker-end="url(#SvgjsMarker1236)"></path></g><g id="SvgjsG1238"><path id="SvgjsPath1239" d="M143.72499084472656 293.25L143.72499084472656 305.75L143.72499084472656 305.75L143.72499084472656 315.65" stroke="#323232" stroke-width="2" fill="none" marker-end="url(#SvgjsMarker1240)"></path></g><g id="SvgjsG1242"><path id="SvgjsPath1243" d="M143.72499084472656 425.25L143.72499084472656 437.75L143.72499084472656 437.75L143.72499084472656 447.65" stroke="#323232" stroke-width="2" fill="none" marker-end="url(#SvgjsMarker1244)"></path></g><g id="SvgjsG1246"><path id="SvgjsPath1247" d="M227.81784965878433 124.09285790579645L306.2249984741211 124.09285790579645L306.2249984741211 444.9" stroke="#323232" stroke-width="2" fill="none" marker-end="url(#SvgjsMarker1248)"></path></g><g id="SvgjsG1250"><path id="SvgjsPath1251" d="M255.7249984741211 467.75L217.72499465942383 467.75L217.72499465942383 467.75L182.32499084472659 467.75" stroke="#323232" stroke-width="2" fill="none" marker-end="url(#SvgjsMarker1252)"></path></g><g id="SvgjsG1254" transform="translate(94.46903846377421,154.86904761904754)"><path id="SvgjsPath1255" d="M 0 0L 60 0L 60 26L 0 26Z" stroke="none" fill="none"></path><g id="SvgjsG1256"><text id="SvgjsText1257" font-family="微软雅黑" text-anchor="middle" font-size="13px" width="60px" fill="#64b5f6" font-weight="400" align="middle" lineHeight="125%" anchor="middle" family="微软雅黑" size="13px" weight="400" font-style="" opacity="1" y="3.375" transform="rotate(0)"><tspan id="SvgjsTspan1258" dy="16" x="30"><tspan id="SvgjsTspan1259" style="text-decoration:;">True</tspan></tspan></text></g></g><g id="SvgjsG1260" transform="translate(225.81576465425036,91.20238095238105)"><path id="SvgjsPath1261" d="M 0 0L 60 0L 60 26L 0 26Z" stroke="none" fill="none"></path><g id="SvgjsG1262"><text id="SvgjsText1263" font-family="微软雅黑" text-anchor="middle" font-size="13px" width="60px" fill="#f44336" font-weight="400" align="middle" lineHeight="125%" anchor="middle" family="微软雅黑" size="13px" weight="400" font-style="" opacity="1" y="3.375" transform="rotate(0)"><tspan id="SvgjsTspan1264" dy="16" x="30"><tspan id="SvgjsTspan1265" style="text-decoration:;">False</tspan></tspan></text></g></g><g id="SvgjsG1266"><path id="SvgjsPath1267" d="M64.44374084472656 371.75L30.632132030668657 371.75L30.632132030668657 124.09285790579645L57.03213203066866 124.09285790579645" stroke="#323232" stroke-width="2" fill="none" marker-end="url(#SvgjsMarker1268)"></path></g><g id="SvgjsG1270" transform="translate(146.84999084472656,422.5)"><path id="SvgjsPath1271" d="M 0 0L 60 0L 60 26L 0 26Z" stroke="none" fill="none"></path><g id="SvgjsG1272"><text id="SvgjsText1273" font-family="微软雅黑" text-anchor="middle" font-size="13px" width="60px" fill="#64b5f6" font-weight="400" align="middle" lineHeight="125%" anchor="middle" family="微软雅黑" size="13px" weight="400" font-style="" opacity="1" y="3.375" transform="rotate(0)"><tspan id="SvgjsTspan1274" dy="16" x="30"><tspan id="SvgjsTspan1275" style="text-decoration:;">yes</tspan></tspan></text></g></g><g id="SvgjsG1276" transform="translate(25.006240844726562,277.25)"><path id="SvgjsPath1277" d="M 0 0L 60 0L 60 26L 0 26Z" stroke="none" fill="none"></path><g id="SvgjsG1278"><text id="SvgjsText1279" font-family="微软雅黑" text-anchor="middle" font-size="13px" width="60px" fill="#f44336" font-weight="400" align="middle" lineHeight="125%" anchor="middle" family="微软雅黑" size="13px" weight="400" font-style="" opacity="1" y="3.375" transform="rotate(0)"><tspan id="SvgjsTspan1280" dy="16" x="30"><tspan id="SvgjsTspan1281" style="text-decoration:;">No</tspan></tspan></text></g></g><g id="SvgjsG1282" transform="translate(80.59999084472656,182.22619047619045)"><path id="SvgjsPath1283" d="M 0 0L 126.25 0L 126.25 38L 0 38Z" stroke="rgba(50,50,50,1)" stroke-width="2" fill-opacity="1" fill="#ffffff"></path><g id="SvgjsG1284"><text id="SvgjsText1285" font-family="微软雅黑" text-anchor="middle" font-size="13px" width="107px" fill="#323232" font-weight="400" align="middle" lineHeight="125%" anchor="middle" family="微软雅黑" size="13px" weight="400" font-style="" opacity="1" y="9.375" transform="rotate(0)"><tspan id="SvgjsTspan1286" dy="16" x="63.5"><tspan id="SvgjsTspan1287" style="text-decoration:;">取出下一个元素</tspan></tspan></text></g></g><g id="SvgjsG1288"><path id="SvgjsPath1289" d="M143.72499084472656 221.22619047619045L143.72499084472656 237.23809523809524L143.72499084472656 237.23809523809524L143.72499084472656 250.64999999999998" stroke="#323232" stroke-width="2" fill="none" marker-end="url(#SvgjsMarker1290)"></path></g></svg>