<svg id="SvgjsSvg1006" width="384.74998474121094" height="467" xmlns="http://www.w3.org/2000/svg" version="1.1" xmlns:xlink="http://www.w3.org/1999/xlink" xmlns:svgjs="http://svgjs.com/svgjs"><defs id="SvgjsDefs1007"><marker id="SvgjsMarker1046" markerWidth="14" markerHeight="10" refX="10" refY="5" viewBox="0 0 14 10" orient="auto" markerUnits="userSpaceOnUse" stroke-dasharray="0,0"><path id="SvgjsPath1047" d="M0,0 L14,5 L0,10 L0,0" fill="#323232" stroke="#323232" stroke-width="1"></path></marker><marker id="SvgjsMarker1050" markerWidth="14" markerHeight="10" refX="10" refY="5" viewBox="0 0 14 10" orient="auto" markerUnits="userSpaceOnUse" stroke-dasharray="0,0"><path id="SvgjsPath1051" d="M0,0 L14,5 L0,10 L0,0" fill="#323232" stroke="#323232" stroke-width="1"></path></marker><marker id="SvgjsMarker1054" markerWidth="14" markerHeight="10" refX="10" refY="5" viewBox="0 0 14 10" orient="auto" markerUnits="userSpaceOnUse" stroke-dasharray="0,0"><path id="SvgjsPath1055" d="M0,0 L14,5 L0,10 L0,0" fill="#323232" stroke="#323232" stroke-width="1"></path></marker><marker id="SvgjsMarker1058" markerWidth="14" markerHeight="10" refX="10" refY="5" viewBox="0 0 14 10" orient="auto" markerUnits="userSpaceOnUse" stroke-dasharray="0,0"><path id="SvgjsPath1059" d="M0,0 L14,5 L0,10 L0,0" fill="#323232" stroke="#323232" stroke-width="1"></path></marker><marker id="SvgjsMarker1062" markerWidth="14" markerHeight="10" refX="10" refY="5" viewBox="0 0 14 10" orient="auto" markerUnits="userSpaceOnUse" stroke-dasharray="0,0"><path id="SvgjsPath1063" d="M0,0 L14,5 L0,10 L0,0" fill="#323232" stroke="#323232" stroke-width="1"></path></marker><marker id="SvgjsMarker1084" markerWidth="14" markerHeight="10" refX="10" refY="5" viewBox="0 0 14 10" orient="auto" markerUnits="userSpaceOnUse" stroke-dasharray="0,0"><path id="SvgjsPath1085" d="M0,0 L14,5 L0,10 L0,0" fill="#323232" stroke="#323232" stroke-width="1"></path></marker><marker id="SvgjsMarker1088" markerWidth="14" markerHeight="10" refX="10" refY="5" viewBox="0 0 14 10" orient="auto" markerUnits="userSpaceOnUse" stroke-dasharray="0,0"><path id="SvgjsPath1089" d="M0,0 L14,5 L0,10 L0,0" fill="#323232" stroke="#323232" stroke-width="1"></path></marker><marker id="SvgjsMarker1092" markerWidth="14" markerHeight="10" refX="10" refY="5" viewBox="0 0 14 10" orient="auto" markerUnits="userSpaceOnUse" stroke-dasharray="0,0"><path id="SvgjsPath1093" d="M0,0 L14,5 L0,10 L0,0" fill="#323232" stroke="#323232" stroke-width="1"></path></marker><marker id="SvgjsMarker1096" markerWidth="14" markerHeight="10" refX="10" refY="5" viewBox="0 0 14 10" orient="auto" markerUnits="userSpaceOnUse" stroke-dasharray="0,0"><path id="SvgjsPath1097" d="M0,0 L14,5 L0,10 L0,0" fill="#323232" stroke="#323232" stroke-width="1"></path></marker><marker id="SvgjsMarker1100" markerWidth="14" markerHeight="10" refX="10" refY="5" viewBox="0 0 14 10" orient="auto" markerUnits="userSpaceOnUse" stroke-dasharray="0,0"><path id="SvgjsPath1101" d="M0,0 L14,5 L0,10 L0,0" fill="#323232" stroke="#323232" stroke-width="1"></path></marker><marker id="SvgjsMarker1104" markerWidth="14" markerHeight="10" refX="10" refY="5" viewBox="0 0 14 10" orient="auto" markerUnits="userSpaceOnUse" stroke-dasharray="0,0"><path id="SvgjsPath1105" d="M0,0 L14,5 L0,10 L0,0" fill="#323232" stroke="#323232" stroke-width="1"></path></marker></defs><g id="SvgjsG1008" transform="translate(50.24998092651367,25)"><path id="SvgjsPath1009" d="M 10.666666666666666 0L 66.33333333333333 0C 80.55555555555556 0 80.55555555555556 32 66.33333333333333 32L 10.666666666666666 32C -3.5555555555555554 32 -3.5555555555555554 0 10.666666666666666 0Z" stroke="rgba(50,50,50,1)" stroke-width="2" fill-opacity="1" fill="#ffffff"></path><g id="SvgjsG1010"><text id="SvgjsText1011" font-family="微软雅黑" text-anchor="middle" font-size="13px" width="57px" fill="#323232" font-weight="400" align="middle" lineHeight="125%" anchor="middle" family="微软雅黑" size="13px" weight="400" font-style="" opacity="1" y="6.375" transform="rotate(0)"><tspan id="SvgjsTspan1012" dy="16" x="38.5"><tspan id="SvgjsTspan1013" style="text-decoration:;">开始</tspan></tspan></text></g></g><g id="SvgjsG1014" transform="translate(34.99998092651367,90)"><path id="SvgjsPath1015" d="M 0 25.5L 53.75 0L 107.5 25.5L 53.75 51L 0 25.5Z" stroke="rgba(50,50,50,1)" stroke-width="2" fill-opacity="1" fill="#ffffff"></path><g id="SvgjsG1016"><text id="SvgjsText1017" font-family="微软雅黑" text-anchor="middle" font-size="13px" width="88px" fill="#323232" font-weight="400" align="middle" lineHeight="125%" anchor="middle" family="微软雅黑" size="13px" weight="400" font-style="" opacity="1" y="15.875" transform="rotate(0)"><tspan id="SvgjsTspan1018" dy="16" x="54"><tspan id="SvgjsTspan1019" style="text-decoration:;">条件1</tspan></tspan></text></g></g><g id="SvgjsG1020" transform="translate(34.99998092651367,174)"><path id="SvgjsPath1021" d="M 0 25.5L 53.75 0L 107.5 25.5L 53.75 51L 0 25.5Z" stroke="rgba(50,50,50,1)" stroke-width="2" fill-opacity="1" fill="#ffffff"></path><g id="SvgjsG1022"><text id="SvgjsText1023" font-family="微软雅黑" text-anchor="middle" font-size="13px" width="88px" fill="#323232" font-weight="400" align="middle" lineHeight="125%" anchor="middle" family="微软雅黑" size="13px" weight="400" font-style="" opacity="1" y="15.875" transform="rotate(0)"><tspan id="SvgjsTspan1024" dy="16" x="54"><tspan id="SvgjsTspan1025" style="text-decoration:;">条件2</tspan></tspan></text></g></g><g id="SvgjsG1026" transform="translate(34.99998092651367,258)"><path id="SvgjsPath1027" d="M 0 25.5L 53.75 0L 107.5 25.5L 53.75 51L 0 25.5Z" stroke="rgba(50,50,50,1)" stroke-width="2" fill-opacity="1" fill="#ffffff"></path><g id="SvgjsG1028"><text id="SvgjsText1029" font-family="微软雅黑" text-anchor="middle" font-size="13px" width="88px" fill="#323232" font-weight="400" align="middle" lineHeight="125%" anchor="middle" family="微软雅黑" size="13px" weight="400" font-style="" opacity="1" y="15.875" transform="rotate(0)"><tspan id="SvgjsTspan1030" dy="16" x="54"><tspan id="SvgjsTspan1031" style="text-decoration:;">条件n</tspan></tspan></text></g></g><g id="SvgjsG1032" transform="translate(38.74998092651367,342)"><path id="SvgjsPath1033" d="M 0 0L 100 0L 100 35L 0 35Z" stroke="rgba(50,50,50,1)" stroke-width="2" fill-opacity="1" fill="#ffffff"></path><g id="SvgjsG1034"><text id="SvgjsText1035" font-family="微软雅黑" text-anchor="middle" font-size="13px" width="80px" fill="#323232" font-weight="400" align="middle" lineHeight="125%" anchor="middle" family="微软雅黑" size="13px" weight="400" font-style="" opacity="1" y="7.875" transform="rotate(0)"><tspan id="SvgjsTspan1036" dy="16" x="50"><tspan id="SvgjsTspan1037" style="text-decoration:;">语句组n+1</tspan></tspan></text></g></g><g id="SvgjsG1038" transform="translate(50.24998092651367,410)"><path id="SvgjsPath1039" d="M 10.666666666666666 0L 66.33333333333333 0C 80.55555555555556 0 80.55555555555556 32 66.33333333333333 32L 10.666666666666666 32C -3.5555555555555554 32 -3.5555555555555554 0 10.666666666666666 0Z" stroke="rgba(50,50,50,1)" stroke-width="2" fill-opacity="1" fill="#ffffff"></path><g id="SvgjsG1040"><text id="SvgjsText1041" font-family="微软雅黑" text-anchor="middle" font-size="13px" width="57px" fill="#323232" font-weight="400" align="middle" lineHeight="125%" anchor="middle" family="微软雅黑" size="13px" weight="400" font-style="" opacity="1" y="6.375" transform="rotate(0)"><tspan id="SvgjsTspan1042" dy="16" x="38.5"><tspan id="SvgjsTspan1043" style="text-decoration:;">结束</tspan></tspan></text></g></g><g id="SvgjsG1044"><path id="SvgjsPath1045" d="M88.74998092651367 58L88.74998092651367 73.5L88.74998092651367 73.5L88.74998092651367 86.4" stroke="#323232" stroke-width="2" fill="none" marker-end="url(#SvgjsMarker1046)"></path></g><g id="SvgjsG1048"><path id="SvgjsPath1049" d="M88.74998092651367 142L88.74998092651367 157.5L88.74998092651367 157.5L88.74998092651367 170.4" stroke="#323232" stroke-width="2" fill="none" marker-end="url(#SvgjsMarker1050)"></path></g><g id="SvgjsG1052"><path id="SvgjsPath1053" d="M88.74998092651367 226L88.74998092651367 241.5L88.74998092651367 241.5L88.74998092651367 254.39999999999998" stroke="#323232" stroke-width="2" fill="none" marker-end="url(#SvgjsMarker1054)"></path></g><g id="SvgjsG1056"><path id="SvgjsPath1057" d="M88.74998092651367 310L88.74998092651367 325.5L88.74998092651367 325.5L88.74998092651367 338.4" stroke="#323232" stroke-width="2" fill="none" marker-end="url(#SvgjsMarker1058)"></path></g><g id="SvgjsG1060"><path id="SvgjsPath1061" d="M88.74998092651367 378L88.74998092651367 393.5L88.74998092651367 393.5L88.74998092651367 406.4" stroke="#323232" stroke-width="2" fill="none" marker-end="url(#SvgjsMarker1062)"></path></g><g id="SvgjsG1064" transform="translate(180.74998092651367,268.5)"><path id="SvgjsPath1065" d="M 0 0L 76.5 0L 76.5 30L 0 30Z" stroke="rgba(50,50,50,1)" stroke-width="2" fill-opacity="1" fill="#ffffff"></path><g id="SvgjsG1066"><text id="SvgjsText1067" font-family="微软雅黑" text-anchor="middle" font-size="13px" width="57px" fill="#323232" font-weight="400" align="middle" lineHeight="125%" anchor="middle" family="微软雅黑" size="13px" weight="400" font-style="" opacity="1" y="5.375" transform="rotate(0)"><tspan id="SvgjsTspan1068" dy="16" x="38.5"><tspan id="SvgjsTspan1069" style="text-decoration:;">语句组n</tspan></tspan></text></g></g><g id="SvgjsG1070" transform="translate(234.24998092651367,184.5)"><path id="SvgjsPath1071" d="M 0 0L 76.5 0L 76.5 30L 0 30Z" stroke="rgba(50,50,50,1)" stroke-width="2" fill-opacity="1" fill="#ffffff"></path><g id="SvgjsG1072"><text id="SvgjsText1073" font-family="微软雅黑" text-anchor="middle" font-size="13px" width="57px" fill="#323232" font-weight="400" align="middle" lineHeight="125%" anchor="middle" family="微软雅黑" size="13px" weight="400" font-style="" opacity="1" y="5.375" transform="rotate(0)"><tspan id="SvgjsTspan1074" dy="16" x="38.5"><tspan id="SvgjsTspan1075" style="text-decoration:;">语句组2</tspan></tspan></text></g></g><g id="SvgjsG1076" transform="translate(282.7499809265137,100.5)"><path id="SvgjsPath1077" d="M 0 0L 76.5 0L 76.5 30L 0 30Z" stroke="rgba(50,50,50,1)" stroke-width="2" fill-opacity="1" fill="#ffffff"></path><g id="SvgjsG1078"><text id="SvgjsText1079" font-family="微软雅黑" text-anchor="middle" font-size="13px" width="57px" fill="#323232" font-weight="400" align="middle" lineHeight="125%" anchor="middle" family="微软雅黑" size="13px" weight="400" font-style="" opacity="1" y="5.375" transform="rotate(0)"><tspan id="SvgjsTspan1080" dy="16" x="38.5"><tspan id="SvgjsTspan1081" style="text-decoration:;">语句组1</tspan></tspan></text></g></g><g id="SvgjsG1082"><path id="SvgjsPath1083" d="M143.49998092651367 115.5L212.62498092651367 115.5L212.62498092651367 115.5L279.14998092651365 115.5" stroke="#323232" stroke-width="2" fill="none" marker-end="url(#SvgjsMarker1084)"></path></g><g id="SvgjsG1086"><path id="SvgjsPath1087" d="M143.49998092651367 199.5L188.37498092651367 199.5L188.37498092651367 199.5L230.64998092651365 199.5" stroke="#323232" stroke-width="2" fill="none" marker-end="url(#SvgjsMarker1088)"></path></g><g id="SvgjsG1090"><path id="SvgjsPath1091" d="M143.49998092651367 283.5L161.62498092651367 283.5L161.62498092651367 283.5L177.14998092651365 283.5" stroke="#323232" stroke-width="2" fill="none" marker-end="url(#SvgjsMarker1092)"></path></g><g id="SvgjsG1094"><path id="SvgjsPath1095" d="M320.9999809265137 131.5L320.9999809265137 426L130.84998092651367 426" stroke="#323232" stroke-width="2" fill="none" marker-end="url(#SvgjsMarker1096)"></path></g><g id="SvgjsG1098"><path id="SvgjsPath1099" d="M272.4999809265137 215.5L272.4999809265137 426L130.84998092651367 426" stroke="#323232" stroke-width="2" fill="none" marker-end="url(#SvgjsMarker1100)"></path></g><g id="SvgjsG1102"><path id="SvgjsPath1103" d="M218.99998092651367 299.5L218.99998092651367 426L130.84998092651367 426" stroke="#323232" stroke-width="2" fill="none" marker-end="url(#SvgjsMarker1104)"></path></g><g id="SvgjsG1106" transform="translate(148.87498092651367,174)"><path id="SvgjsPath1107" d="M 0 0L 64.97500991821289 0L 64.97500991821289 20L 0 20Z" stroke="none" fill="none"></path><g id="SvgjsG1108"><text id="SvgjsText1109" font-family="微软雅黑" text-anchor="middle" font-size="13px" width="65px" fill="#64b5f6" font-weight="400" align="middle" lineHeight="125%" anchor="middle" family="微软雅黑" size="13px" weight="400" font-style="" opacity="1" y="0.375" transform="rotate(0)"><tspan id="SvgjsTspan1110" dy="16" x="32.5"><tspan id="SvgjsTspan1111" style="text-decoration:;">True</tspan></tspan></text></g></g><g id="SvgjsG1112" transform="translate(176.51247596740723,90)"><path id="SvgjsPath1113" d="M 0 0L 64.97500991821289 0L 64.97500991821289 20L 0 20Z" stroke="none" fill="none"></path><g id="SvgjsG1114"><text id="SvgjsText1115" font-family="微软雅黑" text-anchor="middle" font-size="13px" width="65px" fill="#64b5f6" font-weight="400" align="middle" lineHeight="125%" anchor="middle" family="微软雅黑" size="13px" weight="400" font-style="" opacity="1" y="0.375" transform="rotate(0)"><tspan id="SvgjsTspan1116" dy="16" x="32.5"><tspan id="SvgjsTspan1117" style="text-decoration:;">True</tspan></tspan></text></g></g><g id="SvgjsG1118" transform="translate(122.87498092651367,258)"><path id="SvgjsPath1119" d="M 0 0L 64.97500991821289 0L 64.97500991821289 20L 0 20Z" stroke="none" fill="none"></path><g id="SvgjsG1120"><text id="SvgjsText1121" font-family="微软雅黑" text-anchor="middle" font-size="13px" width="65px" fill="#64b5f6" font-weight="400" align="middle" lineHeight="125%" anchor="middle" family="微软雅黑" size="13px" weight="400" font-style="" opacity="1" y="0.375" transform="rotate(0)"><tspan id="SvgjsTspan1122" dy="16" x="32.5"><tspan id="SvgjsTspan1123" style="text-decoration:;">True</tspan></tspan></text></g></g><g id="SvgjsG1124" transform="translate(24.999980926513672,146)"><path id="SvgjsPath1125" d="M 0 0L 64.97500991821289 0L 64.97500991821289 20L 0 20Z" stroke="none" fill="none"></path><g id="SvgjsG1126"><text id="SvgjsText1127" font-family="微软雅黑" text-anchor="middle" font-size="13px" width="65px" fill="#f44336" font-weight="400" align="middle" lineHeight="125%" anchor="middle" family="微软雅黑" size="13px" weight="400" font-style="" opacity="1" y="0.375" transform="rotate(0)"><tspan id="SvgjsTspan1128" dy="16" x="32.5"><tspan id="SvgjsTspan1129" style="text-decoration:;">False</tspan></tspan></text></g></g><g id="SvgjsG1130" transform="translate(24.999980926513672,233)"><path id="SvgjsPath1131" d="M 0 0L 64.97500991821289 0L 64.97500991821289 20L 0 20Z" stroke="none" fill="none"></path><g id="SvgjsG1132"><text id="SvgjsText1133" font-family="微软雅黑" text-anchor="middle" font-size="13px" width="65px" fill="#f44336" font-weight="400" align="middle" lineHeight="125%" anchor="middle" family="微软雅黑" size="13px" weight="400" font-style="" opacity="1" y="0.375" transform="rotate(0)"><tspan id="SvgjsTspan1134" dy="16" x="32.5"><tspan id="SvgjsTspan1135" style="text-decoration:;">False</tspan></tspan></text></g></g><g id="SvgjsG1136" transform="translate(24.999980926513672,314)"><path id="SvgjsPath1137" d="M 0 0L 64.97500991821289 0L 64.97500991821289 20L 0 20Z" stroke="none" fill="none"></path><g id="SvgjsG1138"><text id="SvgjsText1139" font-family="微软雅黑" text-anchor="middle" font-size="13px" width="65px" fill="#f44336" font-weight="400" align="middle" lineHeight="125%" anchor="middle" family="微软雅黑" size="13px" weight="400" font-style="" opacity="1" y="0.375" transform="rotate(0)"><tspan id="SvgjsTspan1140" dy="16" x="32.5"><tspan id="SvgjsTspan1141" style="text-decoration:;">False</tspan></tspan></text></g></g></svg>