<svg id="SvgjsSvg1098" width="379.72499084472656" height="426.25" xmlns="http://www.w3.org/2000/svg" version="1.1" xmlns:xlink="http://www.w3.org/1999/xlink" xmlns:svgjs="http://svgjs.com/svgjs"><defs id="SvgjsDefs1099"><marker id="SvgjsMarker1140" markerWidth="14" markerHeight="10" refX="10" refY="5" viewBox="0 0 14 10" orient="auto" markerUnits="userSpaceOnUse" stroke-dasharray="0,0"><path id="SvgjsPath1141" d="M0,0 L14,5 L0,10 L0,0" fill="#323232" stroke="#323232" stroke-width="1"></path></marker><marker id="SvgjsMarker1144" markerWidth="14" markerHeight="10" refX="10" refY="5" viewBox="0 0 14 10" orient="auto" markerUnits="userSpaceOnUse" stroke-dasharray="0,0"><path id="SvgjsPath1145" d="M0,0 L14,5 L0,10 L0,0" fill="#323232" stroke="#323232" stroke-width="1"></path></marker><marker id="SvgjsMarker1148" markerWidth="14" markerHeight="10" refX="10" refY="5" viewBox="0 0 14 10" orient="auto" markerUnits="userSpaceOnUse" stroke-dasharray="0,0"><path id="SvgjsPath1149" d="M0,0 L14,5 L0,10 L0,0" fill="#323232" stroke="#323232" stroke-width="1"></path></marker><marker id="SvgjsMarker1152" markerWidth="14" markerHeight="10" refX="10" refY="5" viewBox="0 0 14 10" orient="auto" markerUnits="userSpaceOnUse" stroke-dasharray="0,0"><path id="SvgjsPath1153" d="M0,0 L14,5 L0,10 L0,0" fill="#323232" stroke="#323232" stroke-width="1"></path></marker><marker id="SvgjsMarker1156" markerWidth="14" markerHeight="10" refX="10" refY="5" viewBox="0 0 14 10" orient="auto" markerUnits="userSpaceOnUse" stroke-dasharray="0,0"><path id="SvgjsPath1157" d="M0,0 L14,5 L0,10 L0,0" fill="#323232" stroke="#323232" stroke-width="1"></path></marker><marker id="SvgjsMarker1160" markerWidth="14" markerHeight="10" refX="10" refY="5" viewBox="0 0 14 10" orient="auto" markerUnits="userSpaceOnUse" stroke-dasharray="0,0"><path id="SvgjsPath1161" d="M0,0 L14,5 L0,10 L0,0" fill="#323232" stroke="#323232" stroke-width="1"></path></marker><marker id="SvgjsMarker1176" markerWidth="14" markerHeight="10" refX="10" refY="5" viewBox="0 0 14 10" orient="auto" markerUnits="userSpaceOnUse" stroke-dasharray="0,0"><path id="SvgjsPath1177" d="M0,0 L14,5 L0,10 L0,0" fill="#323232" stroke="#323232" stroke-width="1"></path></marker></defs><g id="SvgjsG1100" transform="translate(108.72498321533203,25)"><path id="SvgjsPath1101" d="M 11 0L 59 0C 73.66666666666667 0 73.66666666666667 33 59 33L 11 33C -3.6666666666666665 33 -3.6666666666666665 0 11 0Z" stroke="rgba(50,50,50,1)" stroke-width="2" fill-opacity="1" fill="#ffffff"></path><g id="SvgjsG1102"><text id="SvgjsText1103" font-family="微软雅黑" text-anchor="middle" font-size="13px" width="50px" fill="#323232" font-weight="400" align="middle" lineHeight="125%" anchor="middle" family="微软雅黑" size="13px" weight="400" font-style="" opacity="1" y="6.875" transform="rotate(0)"><tspan id="SvgjsTspan1104" dy="16" x="35"><tspan id="SvgjsTspan1105" style="text-decoration:;">开始</tspan></tspan></text></g></g><g id="SvgjsG1106" transform="translate(79.22498321533203,85)"><path id="SvgjsPath1107" d="M 0 28.5L 64.5 0L 129 28.5L 64.5 57L 0 28.5Z" stroke="rgba(50,50,50,1)" stroke-width="2" fill-opacity="1" fill="#ffffff"></path><g id="SvgjsG1108"><text id="SvgjsText1109" font-family="微软雅黑" text-anchor="middle" font-size="13px" width="109px" fill="#323232" font-weight="400" align="middle" lineHeight="125%" anchor="middle" family="微软雅黑" size="13px" weight="400" font-style="" opacity="1" y="18.875" transform="rotate(0)"><tspan id="SvgjsTspan1110" dy="16" x="64.5"><tspan id="SvgjsTspan1111" style="text-decoration:;">循环条件</tspan></tspan></text></g></g><g id="SvgjsG1112" transform="translate(80.59998321533203,169)"><path id="SvgjsPath1113" d="M 0 0L 126.25 0L 126.25 38L 0 38Z" stroke="rgba(50,50,50,1)" stroke-width="2" fill-opacity="1" fill="#ffffff"></path><g id="SvgjsG1114"><text id="SvgjsText1115" font-family="微软雅黑" text-anchor="middle" font-size="13px" width="107px" fill="#323232" font-weight="400" align="middle" lineHeight="125%" anchor="middle" family="微软雅黑" size="13px" weight="400" font-style="" opacity="1" y="9.375" transform="rotate(0)"><tspan id="SvgjsTspan1116" dy="16" x="63.5"><tspan id="SvgjsTspan1117" style="text-decoration:;">执行循环体语句组</tspan></tspan></text></g></g><g id="SvgjsG1118" transform="translate(65.44373321533203,234)"><path id="SvgjsPath1119" d="M 0 52.5L 78.28125 0L 156.5625 52.5L 78.28125 105L 0 52.5Z" stroke="rgba(50,50,50,1)" stroke-width="2" fill-opacity="1" fill="#ffffff"></path><g id="SvgjsG1120"><text id="SvgjsText1121" font-family="微软雅黑" text-anchor="middle" font-size="13px" width="137px" fill="#323232" font-weight="400" align="middle" lineHeight="125%" anchor="middle" family="微软雅黑" size="13px" weight="400" font-style="" opacity="1" y="34.375" transform="rotate(0)"><tspan id="SvgjsTspan1122" dy="16" x="78.5"><tspan id="SvgjsTspan1123" style="text-decoration:;">是否遇到break、</tspan></tspan><tspan id="SvgjsTspan1124" dy="16" x="78.5"><tspan id="SvgjsTspan1125" style="text-decoration:;">return和有异常发生</tspan></tspan></text></g></g><g id="SvgjsG1126" transform="translate(108.72498321533203,366)"><path id="SvgjsPath1127" d="M 11 0L 59 0C 73.66666666666667 0 73.66666666666667 33 59 33L 11 33C -3.6666666666666665 33 -3.6666666666666665 0 11 0Z" stroke="rgba(50,50,50,1)" stroke-width="2" fill-opacity="1" fill="#ffffff"></path><g id="SvgjsG1128"><text id="SvgjsText1129" font-family="微软雅黑" text-anchor="middle" font-size="13px" width="50px" fill="#323232" font-weight="400" align="middle" lineHeight="125%" anchor="middle" family="微软雅黑" size="13px" weight="400" font-style="" opacity="1" y="6.875" transform="rotate(0)"><tspan id="SvgjsTspan1130" dy="16" x="35"><tspan id="SvgjsTspan1131" style="text-decoration:;">结束</tspan></tspan></text></g></g><g id="SvgjsG1132" transform="translate(256.72499084472656,363.25)"><path id="SvgjsPath1133" d="M 0 0L 99 0L 99 38.5L 0 38.5Z" stroke="rgba(50,50,50,1)" stroke-width="2" fill-opacity="1" fill="#ffffff"></path><g id="SvgjsG1134"><text id="SvgjsText1135" font-family="微软雅黑" text-anchor="middle" font-size="13px" width="79px" fill="#323232" font-weight="400" align="middle" lineHeight="125%" anchor="middle" family="微软雅黑" size="13px" weight="400" font-style="" opacity="1" y="9.625" transform="rotate(0)"><tspan id="SvgjsTspan1136" dy="16" x="49.5"><tspan id="SvgjsTspan1137" style="text-decoration:;">执行else语句</tspan></tspan></text></g></g><g id="SvgjsG1138"><path id="SvgjsPath1139" d="M143.72498321533203 59L143.72498321533203 71.5L143.72498321533203 71.5L143.72498321533203 81.4" stroke="#323232" stroke-width="2" fill="none" marker-end="url(#SvgjsMarker1140)"></path></g><g id="SvgjsG1142"><path id="SvgjsPath1143" d="M143.72498321533203 143L143.72498321533203 155.5L143.72498321533203 155.5L143.72498321533203 165.4" stroke="#323232" stroke-width="2" fill="none" marker-end="url(#SvgjsMarker1144)"></path></g><g id="SvgjsG1146"><path id="SvgjsPath1147" d="M143.72498321533203 208L143.72498321533203 220.5L143.72498321533203 220.5L143.72498321533203 230.39999999999998" stroke="#323232" stroke-width="2" fill="none" marker-end="url(#SvgjsMarker1148)"></path></g><g id="SvgjsG1150"><path id="SvgjsPath1151" d="M143.72498321533203 340L143.72498321533203 352.5L143.72498321533203 352.5L143.72498321533203 362.4" stroke="#323232" stroke-width="2" fill="none" marker-end="url(#SvgjsMarker1152)"></path></g><g id="SvgjsG1154"><path id="SvgjsPath1155" d="M209.22498321533203 113.5L306.22499084472656 113.5L306.22499084472656 359.65" stroke="#323232" stroke-width="2" fill="none" marker-end="url(#SvgjsMarker1156)"></path></g><g id="SvgjsG1158"><path id="SvgjsPath1159" d="M255.72499084472656 382.5L217.7249870300293 382.5L217.7249870300293 382.5L182.32498321533205 382.5" stroke="#323232" stroke-width="2" fill="none" marker-end="url(#SvgjsMarker1160)"></path></g><g id="SvgjsG1162" transform="translate(89.72499084472656,142)"><path id="SvgjsPath1163" d="M 0 0L 60 0L 60 26L 0 26Z" stroke="none" fill="none"></path><g id="SvgjsG1164"><text id="SvgjsText1165" font-family="微软雅黑" text-anchor="middle" font-size="13px" width="60px" fill="#64b5f6" font-weight="400" align="middle" lineHeight="125%" anchor="middle" family="微软雅黑" size="13px" weight="400" font-style="" opacity="1" y="3.375" transform="rotate(0)"><tspan id="SvgjsTspan1166" dy="16" x="30"><tspan id="SvgjsTspan1167" style="text-decoration:;">True</tspan></tspan></text></g></g><g id="SvgjsG1168" transform="translate(222.00623321533203,85)"><path id="SvgjsPath1169" d="M 0 0L 60 0L 60 26L 0 26Z" stroke="none" fill="none"></path><g id="SvgjsG1170"><text id="SvgjsText1171" font-family="微软雅黑" text-anchor="middle" font-size="13px" width="60px" fill="#f44336" font-weight="400" align="middle" lineHeight="125%" anchor="middle" family="微软雅黑" size="13px" weight="400" font-style="" opacity="1" y="3.375" transform="rotate(0)"><tspan id="SvgjsTspan1172" dy="16" x="30"><tspan id="SvgjsTspan1173" style="text-decoration:;">False</tspan></tspan></text></g></g><g id="SvgjsG1174"><path id="SvgjsPath1175" d="M64.44373321533203 286.5L35.44373321533203 286.5L35.44373321533203 113.5L75.62498321533204 113.5" stroke="#323232" stroke-width="2" fill="none" marker-end="url(#SvgjsMarker1176)"></path></g><g id="SvgjsG1178" transform="translate(146.84998321533203,337.25)"><path id="SvgjsPath1179" d="M 0 0L 60 0L 60 26L 0 26Z" stroke="none" fill="none"></path><g id="SvgjsG1180"><text id="SvgjsText1181" font-family="微软雅黑" text-anchor="middle" font-size="13px" width="60px" fill="#64b5f6" font-weight="400" align="middle" lineHeight="125%" anchor="middle" family="微软雅黑" size="13px" weight="400" font-style="" opacity="1" y="3.375" transform="rotate(0)"><tspan id="SvgjsTspan1182" dy="16" x="30"><tspan id="SvgjsTspan1183" style="text-decoration:;">yes</tspan></tspan></text></g></g><g id="SvgjsG1184" transform="translate(25.00623321533203,192)"><path id="SvgjsPath1185" d="M 0 0L 60 0L 60 26L 0 26Z" stroke="none" fill="none"></path><g id="SvgjsG1186"><text id="SvgjsText1187" font-family="微软雅黑" text-anchor="middle" font-size="13px" width="60px" fill="#f44336" font-weight="400" align="middle" lineHeight="125%" anchor="middle" family="微软雅黑" size="13px" weight="400" font-style="" opacity="1" y="3.375" transform="rotate(0)"><tspan id="SvgjsTspan1188" dy="16" x="30"><tspan id="SvgjsTspan1189" style="text-decoration:;">No</tspan></tspan></text></g></g></svg>